<svg width="109" height="94" viewBox="0 0 109 94" fill="none" xmlns="http://www.w3.org/2000/svg">
<circle cx="49.2776" cy="42.7796" r="42.7796" fill="#EACEFF"/>
<path d="M106.633 28.7452C105.726 28.2154 104.947 27.7859 104.196 27.3143C102.919 26.5197 101.694 25.6781 100.83 24.3926C99.9543 23.0875 99.8556 21.7257 100.655 20.4114C101.147 19.6051 101.856 18.9344 102.493 18.2275C102.743 17.9525 103.075 17.7434 103.506 17.3899C102.679 17.345 102.029 17.3199 101.381 17.2676C99.7969 17.1465 98.2063 17.09 96.6392 16.8633C94.4903 16.5634 93.5258 15.1793 93.9033 13.029C94.0519 12.186 94.4083 11.371 94.6795 10.5442C94.7625 10.296 94.8802 10.0627 95.0014 9.77514C93.5588 10.2163 92.1939 10.6562 90.8221 11.0391C87.6201 11.9304 86.4291 9.64128 86.7339 7.3502C86.8154 6.73743 87.0492 6.13241 87.2672 5.54521C87.4263 5.15743 87.772 4.89691 88.1983 5.07733C88.586 5.23641 88.6027 5.62715 88.5109 6.0109C88.4257 6.39087 88.3133 6.7691 88.272 7.14981C88.2244 7.59507 88.1806 8.04685 88.2209 8.49358C88.3369 9.74965 88.9563 10.2798 90.2083 10.0966C91.0922 9.96926 91.9615 9.71108 92.8216 9.46696C93.6218 9.23994 94.4163 8.97274 95.2107 8.70555C95.6215 8.57282 96.0399 8.45316 96.3938 8.77975C96.8012 9.15379 96.6397 9.61264 96.4929 10.0368C96.3092 10.5781 96.046 11.0869 95.8932 11.6364C95.6915 12.3273 95.5039 13.0275 95.4145 13.7319C95.2963 14.688 95.6013 15.156 96.5345 15.4005C97.4266 15.634 98.353 15.8216 99.2734 15.9082C101.246 16.0836 103.215 16.1917 105.19 16.296C105.657 16.322 106.032 16.4278 106.191 16.8843C106.345 17.3175 106.097 17.6262 105.768 17.8857C105.181 18.3464 104.566 18.7886 104.004 19.2782C103.514 19.7096 103.017 20.1615 102.616 20.6719C101.539 22.0333 101.593 23.1513 102.699 24.4796C103.529 25.4801 104.526 26.2881 105.624 26.9686C106.414 27.4615 107.234 27.902 108.038 28.3603C108.465 28.6015 108.905 28.8519 108.819 29.4413C108.731 29.9971 108.262 30.1806 107.795 30.3369C107.596 30.3995 107.389 30.4322 107.185 30.4715C106.774 30.5434 106.362 30.6425 105.945 30.6743C102.846 30.9312 101.306 32.8912 100.529 35.6462C100.387 36.1545 100.404 36.7108 100.365 37.2467C100.344 37.5113 100.401 37.7916 100.349 38.048C100.316 38.2323 100.186 38.49 100.044 38.529C99.8877 38.5755 99.6365 38.442 99.4921 38.3426C99.1816 38.1214 98.9871 37.6941 98.9388 37.339C98.8459 36.6354 98.7949 35.8989 98.9087 35.2065C99.1543 33.6721 99.8457 32.3068 100.781 31.0619C101.578 30.0009 102.689 29.4378 103.953 29.1694C104.781 29.0049 105.612 28.9077 106.633 28.7452Z" fill="#EACEFF"/>
<path d="M16.2266 91.1562C16.0468 90.1218 15.9166 89.242 15.7371 88.3735C15.4386 86.8994 15.0783 85.4569 14.1757 84.1982C13.2586 82.9221 12.0171 82.3539 10.5064 82.6435C9.57904 82.8228 8.70272 83.2532 7.81808 83.6025C7.47291 83.7409 7.16109 83.9789 6.67921 84.2595C6.92592 83.4692 7.12941 82.8515 7.30687 82.2259C7.74699 80.6991 8.24976 79.1889 8.58477 77.6414C9.05453 75.5231 8.09459 74.1358 5.94797 73.7383C5.1061 73.583 4.21796 73.6322 3.34853 73.5974C3.08702 73.5886 2.82727 73.6173 2.51548 73.6304C3.43284 72.4329 4.32189 71.3076 5.1599 70.1561C7.11367 67.4672 5.38493 65.5515 3.1317 65.0367C2.52911 64.8989 1.8805 64.9067 1.25413 64.9058C0.835207 64.9194 0.470321 65.1523 0.490468 65.6147C0.504053 66.0336 0.864337 66.1858 1.25597 66.2339C1.64178 66.2867 2.03544 66.3136 2.4066 66.4079C2.84041 66.5188 3.27903 66.6356 3.68353 66.8295C4.81995 67.3769 5.10031 68.1426 4.49121 69.2517C4.06308 70.0354 3.51747 70.7597 2.98827 71.4803C2.49598 72.1508 1.96806 72.8018 1.44014 73.4529C1.17227 73.7914 0.913988 74.1416 1.09635 74.5873C1.30448 75.0998 1.79086 75.1087 2.2396 75.1194C2.81088 75.1364 3.37965 75.0675 3.9479 75.1163C4.66572 75.1687 5.38734 75.2375 6.07861 75.3999C7.01573 75.6231 7.34767 76.0724 7.25076 77.0323C7.1579 77.9497 7.00996 78.8833 6.76954 79.7759C6.24473 81.6855 5.65827 83.5678 5.066 85.4549C4.92696 85.9021 4.89533 86.29 5.26746 86.5985C5.61939 86.8945 5.99538 86.7697 6.35344 86.5522C6.99022 86.1632 7.61943 85.7413 8.2744 85.3862C8.85002 85.077 9.44687 84.7698 10.0654 84.5718C11.7172 84.0387 12.746 84.4795 13.6041 85.9802C14.2515 87.1074 14.6602 88.3243 14.9142 89.5908C15.1003 90.5027 15.2265 91.4249 15.3749 92.3386C15.4519 92.8225 15.5327 93.3228 16.1151 93.4479C16.6666 93.5594 17.0022 93.1845 17.3118 92.8018C17.4399 92.6373 17.5431 92.4544 17.651 92.2773C17.862 91.9172 18.0991 91.5651 18.2745 91.1856C19.5976 88.3723 21.9723 87.6136 24.8251 87.8482C25.3509 87.893 25.8663 88.1028 26.382 88.2538C26.6375 88.3263 26.88 88.4779 27.1385 88.5187C27.3227 88.5523 27.6094 88.5207 27.6959 88.4005C27.7939 88.2706 27.7566 87.9886 27.7139 87.8186C27.6152 87.4504 27.2827 87.1189 26.9669 86.9496C26.3401 86.6167 25.6677 86.3116 24.9792 86.1764C23.4557 85.8704 21.9349 86.0413 20.4418 86.4825C19.169 86.859 18.2532 87.7033 17.5603 88.7937C17.117 89.5117 16.7353 90.2571 16.2266 91.1562Z" fill="#EACEFF"/>
</svg>
